<?xml version="1.0" ?><svg id="Outline" viewBox="0 0 512 512" xmlns="http://www.w3.org/2000/svg"><defs><style>.cls-1{fill:#262626;}</style></defs><path class="cls-1" d="M137.3,150.79a50.05,50.05,0,1,0-35.4-14.66A49.77,49.77,0,0,0,137.3,150.79ZM117.94,81.37a27.38,27.38,0,1,1-8,19.36A27.21,27.21,0,0,1,117.94,81.37Z"/><path class="cls-1" d="M210.75,231.89a73.45,73.45,0,0,0-146.9,0,11.34,11.34,0,0,0,11.34,11.34H199.41A11.34,11.34,0,0,0,210.75,231.89ZM87.81,220.55a50.77,50.77,0,0,1,99,0Z"/><path class="cls-1" d="M218.6,283.15a50.06,50.06,0,1,0,70.8,0A49.73,49.73,0,0,0,218.6,283.15Zm54.76,54.75a27.38,27.38,0,1,1,8-19.36A27.4,27.4,0,0,1,273.36,337.9Z"/><path class="cls-1" d="M254,376.25a73.53,73.53,0,0,0-73.45,73.45A11.34,11.34,0,0,0,191.89,461H316.11a11.34,11.34,0,0,0,11.34-11.34A73.53,73.53,0,0,0,254,376.25Zm-49.49,62.11a50.77,50.77,0,0,1,99,0Z"/><path class="cls-1" d="M374.35,150.79A50.06,50.06,0,1,0,339,136.13,49.77,49.77,0,0,0,374.35,150.79ZM355,81.37a27.38,27.38,0,1,1,0,38.72A27.21,27.21,0,0,1,355,81.37Z"/><path class="cls-1" d="M374.35,158.44a73.53,73.53,0,0,0-73.45,73.45,11.34,11.34,0,0,0,11.34,11.34H436.46a11.34,11.34,0,0,0,11.34-11.34A73.53,73.53,0,0,0,374.35,158.44Zm-49.49,62.11a50.77,50.77,0,0,1,99,0Z"/><path class="cls-1" d="M177.87,372a139.84,139.84,0,0,1-59-88.7,11.34,11.34,0,1,0-22.25,4.4,162.6,162.6,0,0,0,68.57,103.09A11.34,11.34,0,1,0,177.87,372Z"/><path class="cls-1" d="M218.33,121.33a140.62,140.62,0,0,1,75.45,0,11.57,11.57,0,0,0,3.06.42,11.34,11.34,0,0,0,3.05-22.26,163.61,163.61,0,0,0-87.66,0,11.34,11.34,0,0,0,6.1,21.85Z"/><path class="cls-1" d="M401.62,274.33a11.35,11.35,0,0,0-13.32,8.93,138.43,138.43,0,0,1-19.54,48.37A139.91,139.91,0,0,1,329.29,372,11.34,11.34,0,0,0,342,390.75a162.6,162.6,0,0,0,68.57-103.09A11.35,11.35,0,0,0,401.62,274.33Z"/></svg>