<?xml version="1.0" ?><svg viewBox="0 0 64 64" xmlns="http://www.w3.org/2000/svg"><g id="Glyph"><g data-name="Glyph" id="Glyph-2"><path d="M32,24A14.5,14.5,0,1,0,46.5,38.5,14.51,14.51,0,0,0,32,24Zm0,27A12.5,12.5,0,1,1,44.5,38.5,12.52,12.52,0,0,1,32,51Z"/><path d="M32,28A10.5,10.5,0,1,0,42.5,38.5,10.51,10.51,0,0,0,32,28Zm1,15.73V44a1,1,0,0,1-2,0v-.29a3.3,3.3,0,0,1-2.16-2.44,1,1,0,0,1,.78-1.18,1,1,0,0,1,1.18.77,1.28,1.28,0,1,0,1.25-1.53A2.85,2.85,0,0,1,31,33.79V33a1,1,0,0,1,2,0v.84a2.8,2.8,0,0,1,1.63,1.73,1,1,0,0,1-1.89.63.86.86,0,0,0-1.67.27.87.87,0,0,0,.92.86h0a3.27,3.27,0,0,1,1,6.4Z"/><path d="M54,6H51V5.5a3.5,3.5,0,0,0-7,0V6H35.5V5.5a3.5,3.5,0,0,0-7,0V6H20V5.5a3.5,3.5,0,0,0-7,0V6H10a5,5,0,0,0-5,5V57a5,5,0,0,0,5,5H54a5,5,0,0,0,5-5V11A5,5,0,0,0,54,6Zm-8-.5a1.5,1.5,0,0,1,3,0v4a1.5,1.5,0,0,1-3,0Zm-15.5,0a1.5,1.5,0,0,1,3,0v4a1.5,1.5,0,0,1-3,0ZM15,5.5a1.5,1.5,0,0,1,3,0v4a1.5,1.5,0,0,1-3,0ZM48,54.59V50a3,3,0,0,1,3-3h4.59ZM57,44a1,1,0,0,1-1,1H51a5,5,0,0,0-5,5v5a1,1,0,0,1-1,1l-35-.06a3,3,0,0,1-3-3V20H57Z"/></g></g></svg>