<svg xmlns="http://www.w3.org/2000/svg" width="115.347" height="115.346" viewBox="0 0 115.347 115.346">
  <path id="Icon_awesome-bitcoin" data-name="Icon awesome-bitcoin" d="M115.909,58.236A57.673,57.673,0,1,1,58.236.563,57.673,57.673,0,0,1,115.909,58.236ZM82.967,50.02c1.148-7.674-4.7-11.8-12.686-14.552l2.592-10.4L66.545,23.5,64.022,33.617c-1.664-.415-3.372-.806-5.07-1.193l2.542-10.188-6.325-1.577L52.574,31.051c-1.377-.314-2.729-.624-4.041-.95l.007-.033L39.813,27.89l-1.683,6.758s4.7,1.076,4.6,1.143c2.563.64,3.026,2.336,2.949,3.68L42.722,51.314a5.248,5.248,0,0,1,.658.211c-.211-.052-.436-.11-.669-.166l-4.139,16.59a2.3,2.3,0,0,1-2.9,1.5c.063.092-4.6-1.148-4.6-1.148l-3.142,7.243L36.166,77.6c1.532.384,3.034.786,4.512,1.164L38.059,89.278l6.321,1.577,2.594-10.4q2.515.681,5.043,1.309L49.432,92.115l6.328,1.577L58.38,83.2c10.791,2.042,18.906,1.218,22.322-8.541,2.752-7.858-.137-12.391-5.815-15.346,4.135-.953,7.25-3.672,8.081-9.29ZM68.508,70.293c-1.956,7.858-15.188,3.61-19.477,2.545l3.475-13.93C56.8,59.979,70.552,62.1,68.508,70.293Zm1.957-20.387c-1.784,7.148-12.8,3.516-16.37,2.626L57.246,39.9C60.819,40.788,72.324,42.45,70.465,49.906Z" transform="translate(-0.563 -0.563)" fill="#ffc107"/>
</svg>
