<?xml version="1.0" encoding="UTF-8"?><svg xmlns="http://www.w3.org/2000/svg" xmlns:xlink="http://www.w3.org/1999/xlink" contentScriptType="text/ecmascript" width="375" zoomAndPan="magnify" contentStyleType="text/css" viewBox="0 0 375 374.999991" height="374.999991" preserveAspectRatio="xMidYMid meet" version="1.0"><defs><clipPath id="clip-0"><path d="M 3.761719 17.410156 L 283 17.410156 L 283 342.125 L 3.761719 342.125 Z M 3.761719 17.410156 " clip-rule="nonzero"/></clipPath><clipPath id="clip-1"><path d="M 96 17.410156 L 375 17.410156 L 375 342.125 L 96 342.125 Z M 96 17.410156 " clip-rule="nonzero"/></clipPath></defs><g clip-path="url(#clip-0)"><path fill="rgb(17.248535%, 30.589294%, 60.389709%)" d="M 3.832031 179.742188 C 3.832031 218.171875 34.984375 249.332031 73.417969 249.332031 L 189.386719 249.332031 C 215.007812 249.332031 235.769531 270.101562 235.769531 295.714844 L 235.769531 318.910156 C 235.769531 331.722656 246.152344 342.101562 258.960938 342.101562 C 271.773438 342.101562 282.15625 331.722656 282.15625 318.910156 L 282.15625 295.714844 C 282.15625 244.476562 240.617188 202.9375 189.378906 202.9375 L 73.417969 202.9375 C 60.605469 202.9375 50.226562 192.554688 50.226562 179.742188 C 50.226562 166.929688 60.605469 156.550781 73.417969 156.550781 L 189.386719 156.550781 C 240.625 156.550781 282.164062 115.011719 282.164062 63.769531 L 282.164062 40.570312 C 282.164062 27.757812 271.773438 17.375 258.960938 17.375 C 246.152344 17.375 235.769531 27.757812 235.769531 40.570312 L 235.769531 63.761719 C 235.769531 89.386719 215 110.148438 189.386719 110.148438 L 73.417969 110.148438 C 34.984375 110.15625 3.832031 141.308594 3.832031 179.742188 Z M 3.832031 179.742188 " fill-opacity="1" fill-rule="nonzero"/><path fill="rgb(23.529053%, 40.388489%, 68.238831%)" d="M 97.453125 249.324219 L 73.417969 249.324219 C 34.984375 249.324219 3.832031 218.171875 3.832031 179.742188 C 3.832031 141.316406 34.984375 110.15625 73.417969 110.15625 L 97.460938 110.15625 C 107.6875 130.347656 124.351562 146.683594 144.75 156.542969 L 73.417969 156.542969 C 60.605469 156.542969 50.226562 166.921875 50.226562 179.734375 C 50.226562 192.546875 60.605469 202.929688 73.417969 202.929688 L 144.75 202.929688 C 124.34375 212.796875 107.6875 229.128906 97.453125 249.324219 Z M 218.515625 259.632812 C 229.03125 268.136719 235.777344 281.132812 235.777344 295.707031 L 235.777344 318.902344 C 235.777344 331.714844 246.160156 342.09375 258.96875 342.09375 C 271.78125 342.09375 282.164062 331.714844 282.164062 318.902344 L 282.164062 295.707031 C 282.164062 282.914062 279.570312 270.71875 274.886719 259.632812 Z M 235.769531 40.570312 L 235.769531 63.761719 C 235.769531 78.347656 229.03125 91.335938 218.507812 99.839844 L 274.878906 99.839844 C 279.5625 88.746094 282.15625 76.558594 282.15625 63.761719 L 282.15625 40.570312 C 282.164062 27.757812 271.773438 17.375 258.960938 17.375 C 246.152344 17.375 235.769531 27.757812 235.769531 40.570312 Z M 235.769531 40.570312 " fill-opacity="1" fill-rule="nonzero"/></g><g clip-path="url(#clip-1)"><path fill="rgb(31.369019%, 66.268921%, 87.449646%)" d="M 374.9375 179.742188 C 374.9375 141.316406 343.789062 110.15625 305.355469 110.15625 L 189.386719 110.15625 C 163.761719 110.15625 143.003906 89.386719 143.003906 63.769531 L 143.003906 40.570312 C 142.992188 27.757812 132.613281 17.375 119.800781 17.375 C 106.992188 17.375 96.609375 27.757812 96.609375 40.570312 L 96.609375 63.761719 C 96.609375 115.003906 138.148438 156.542969 189.386719 156.542969 L 305.355469 156.542969 C 318.164062 156.542969 328.546875 166.921875 328.546875 179.734375 C 328.546875 192.546875 318.164062 202.929688 305.355469 202.929688 L 189.386719 202.929688 C 138.148438 202.929688 96.609375 244.46875 96.609375 295.707031 L 96.609375 318.902344 C 96.609375 331.714844 106.992188 342.09375 119.800781 342.09375 C 132.613281 342.09375 142.992188 331.714844 142.992188 318.902344 L 142.992188 295.707031 C 142.992188 270.085938 163.761719 249.324219 189.378906 249.324219 L 305.347656 249.324219 C 343.78125 249.324219 374.9375 218.171875 374.9375 179.742188 Z M 374.9375 179.742188 " fill-opacity="1" fill-rule="nonzero"/></g></svg>